<?xml version="1.0"?>
<svg xmlns="http://www.w3.org/2000/svg" xmlns:xlink="http://www.w3.org/1999/xlink" viewBox="0 0 594.721 115.375">
  <defs>
    <linearGradient id="a" x1="551.987" y1="82.266" x2="516.271" y2="46.55" gradientUnits="userSpaceOnUse">
      <stop offset="0" stop-color="#3ebca6"/>
      <stop offset="0.5" stop-color="#057f99"/>
      <stop offset="1" stop-color="#006b81"/>
    </linearGradient>
  </defs>
  <title>classicpress-logo-wordmark-gradient-on-transparent</title>
  <path d="M596.932,13.321l-.007-.012a2.55,2.55,0,0,0-2.137-1.083c-14.619.823-38.17,9.391-39.163,9.756a2.391,2.391,0,0,0-1.317,1.181l-3.318,6.628-2.446-2.447a2.386,2.386,0,0,0-2.812-.428c-2.8,1.463-16.954,8.968-19.965,12.621-1.748,2.113-3.1,6.762-4.016,10.859l-1.6-3.191a2.383,2.383,0,0,0-1.685-1.283,2.353,2.353,0,0,0-2.047.552c-.847.743-18.514,16.641-14.836,36.462,14.135-20.152,31.123-37.1,58.911-50.74a2.4,2.4,0,0,1,2.126,4.311l-.008,0c-1.616.8-3.186,1.607-4.727,2.424-.392.207-.777.417-1.164.626q-1.774.96-3.49,1.94c-.373.214-.742.424-1.11.638q-4.422,2.577-8.447,5.3c-.221.148-.438.3-.662.455q-1.752,1.2-3.439,2.429c-.2.144-.392.288-.589.434-26.224,19.344-40.1,43.856-56.724,73.256a2.4,2.4,0,0,0,2.094,3.583l0,0a2.39,2.39,0,0,0,2.091-1.217c6.621-11.708,12.8-22.623,19.5-32.725a13.709,13.709,0,0,0,11.172,5c18.176,0,48.192-26.586,51.215-35.149a2.4,2.4,0,0,0-1.682-3.131l-8.011-2.006,17.441-2.906a2.383,2.383,0,0,0,1.753-1.3L597.064,15.7A2.463,2.463,0,0,0,596.932,13.321Z" transform="translate(-2.59 -12.223)" style="fill:url(#a)"/>
  <path d="M462.774,81.555A9.881,9.881,0,0,0,460.3,77.67a17.066,17.066,0,0,0-5.1-3.291,34.757,34.757,0,0,0-5.7-1.932q-3.157-.789-6.965-1.753a10.778,10.778,0,0,1-3.814-1.626,5.379,5.379,0,0,1-1.859-2.215,7.117,7.117,0,0,1-.5-2.746,5.25,5.25,0,0,1,1.268-3.51,6.834,6.834,0,0,1,3.313-2.108,17.179,17.179,0,0,1,4.9-.614,17.633,17.633,0,0,1,5.4,1.013,19.375,19.375,0,0,1,4.763,2.147c1.331.91,2.316.935,2.951.087L461,58.489a1.427,1.427,0,0,0-.407-2.327,26.553,26.553,0,0,0-5.923-2.961,27.033,27.033,0,0,0-9.054-1.251,29.18,29.18,0,0,0-7.849,1.12,13.443,13.443,0,0,0-6.715,4.192,10.766,10.766,0,0,0-2.678,7.327,11.244,11.244,0,0,0,1.656,6.538,13.3,13.3,0,0,0,3.881,3.744,19.379,19.379,0,0,0,4.719,2.122q3.719,1.148,6.011,1.7a43.657,43.657,0,0,1,4.607,1.392,16.315,16.315,0,0,1,2.88,1.344,5.334,5.334,0,0,1,2.178,2.259,6.549,6.549,0,0,1,.7,2.984,6.223,6.223,0,0,1-1.475,4.348,7.55,7.55,0,0,1-3.425,2.215,15.364,15.364,0,0,1-4.447.594,22.114,22.114,0,0,1-7.511-1.188,23.121,23.121,0,0,1-5.967-3.16c-1.3-.964-2.285-1.013-2.949-.131L427.2,92.115q-.815,1.1.591,2.371,1.406,1.314,6.239,3.184a32.27,32.27,0,0,0,11.593,1.865,29.68,29.68,0,0,0,8.533-1.076,14.04,14.04,0,0,0,6.421-4.324,11.559,11.559,0,0,0,2.882-7.945A14.92,14.92,0,0,0,462.774,81.555Z" transform="translate(-2.59 -12.223)" style="fill:#057f99"/>
  <path d="M424.12,81.555a9.881,9.881,0,0,0-2.475-3.885,17.066,17.066,0,0,0-5.1-3.291,34.705,34.705,0,0,0-5.7-1.932q-3.154-.789-6.964-1.753a10.772,10.772,0,0,1-3.813-1.626,5.374,5.374,0,0,1-1.86-2.215,7.1,7.1,0,0,1-.5-2.746,5.246,5.246,0,0,1,1.269-3.51,6.822,6.822,0,0,1,3.312-2.108,17.2,17.2,0,0,1,4.9-.614,17.628,17.628,0,0,1,5.4,1.013,19.4,19.4,0,0,1,4.764,2.147c1.33.91,2.315.935,2.95.087l2.042-2.633a1.426,1.426,0,0,0-.409-2.327,26.5,26.5,0,0,0-5.922-2.961,27.029,27.029,0,0,0-9.054-1.251,29.186,29.186,0,0,0-7.849,1.12,13.443,13.443,0,0,0-6.715,4.192,10.785,10.785,0,0,0-2.678,7.327,11.244,11.244,0,0,0,1.656,6.538,13.3,13.3,0,0,0,3.881,3.744,19.4,19.4,0,0,0,4.719,2.122q3.72,1.148,6.012,1.7a43.641,43.641,0,0,1,4.606,1.392,16.431,16.431,0,0,1,2.882,1.344,5.341,5.341,0,0,1,2.176,2.259,6.549,6.549,0,0,1,.705,2.984,6.223,6.223,0,0,1-1.475,4.348,7.56,7.56,0,0,1-3.425,2.215,15.364,15.364,0,0,1-4.447.594,22.1,22.1,0,0,1-7.51-1.188,23.094,23.094,0,0,1-5.968-3.16c-1.3-.964-2.285-1.013-2.949-.131l-2.043,2.765q-.816,1.1.59,2.371,1.406,1.314,6.239,3.184a32.27,32.27,0,0,0,11.593,1.865,29.676,29.676,0,0,0,8.533-1.076,14.037,14.037,0,0,0,6.42-4.324A11.554,11.554,0,0,0,424.8,86.19,14.891,14.891,0,0,0,424.12,81.555Z" transform="translate(-2.59 -12.223)" style="fill:#057f99"/>
  <path d="M384.694,76.706q0-12.946-5.741-18.855a19.316,19.316,0,0,0-14.452-5.9q-10.48,0-16.111,6.451t-5.625,17.341q0,10.889,5.377,17.337t16.723,6.456q8.712,0,12.772-2.8t4.922-4.055q1.045-1.542,0-2.415l-2.676-2.244q-1.362-1.14-2.812.7a15.644,15.644,0,0,1-4.157,3.388q-2.835,1.709-8.137,1.714a13.661,13.661,0,0,1-9-3.325q-3.978-3.324-4.754-11.821h31.8Q384.694,78.683,384.694,76.706ZM351.023,72.88q.681-8.895,4.357-12.41a12.46,12.46,0,0,1,8.938-3.515,10.107,10.107,0,0,1,9.076,4.786,21.289,21.289,0,0,1,3.269,11.139Z" transform="translate(-2.59 -12.223)" style="fill:#057f99"/>
  <path d="M318.789,99.564a1.8,1.8,0,0,1-2.019-2.04V53.956a1.8,1.8,0,0,1,2.042-2.04h3.813a1.8,1.8,0,0,1,2.041,2.04V59.4a17.492,17.492,0,0,1,5.18-6.173,12.667,12.667,0,0,1,7.431-2.084,11.921,11.921,0,0,1,4.126.5,1.04,1.04,0,0,1,.769,1.363l-1.044,3.719c-.15.546-.543.76-1.176.638a15.322,15.322,0,0,0-3.013-.321,10.474,10.474,0,0,0-8.805,4.79q-3.471,4.791-3.468,13.048V97.524a1.8,1.8,0,0,1-2.019,2.04Z" transform="translate(-2.59 -12.223)" style="fill:#057f99"/>
  <path d="M271.582,65.986h12.753q9.98,0,13.612-2.838t3.629-9.192q0-6.345-3.629-9.184t-13.612-2.836H271.582Zm-6.443,33.578q-2.27,0-2.269-2.5V36.99q0-2.495,2.269-2.5H284.2q15.428,0,20.829,5.2t5.4,14.267q0,9.084-5.4,14.274T284.2,73.425H271.582V97.066q0,2.5-2.269,2.5Z" transform="translate(-2.59 -12.223)" style="fill:#057f99"/>
  <path d="M255.436,88.473l-3.042-1.757q-1.5-.876-2.676,1.183a12.505,12.505,0,0,1-3.905,4.06q-2.676,1.869-7.711,1.87a11.425,11.425,0,0,1-9.622-4.436q-3.4-4.433-3.4-13.651t3.4-13.651a11.426,11.426,0,0,1,9.622-4.435q4.762,0,7.147,1.451a11.354,11.354,0,0,1,3.7,3.466c.906,1.4,1.814,1.8,2.721,1.183l2.857-1.8a1.464,1.464,0,0,0,.411-2.322,18.869,18.869,0,0,0-5.606-5.161q-3.877-2.52-11.229-2.522-10.893,0-16.178,6.738t-5.286,17.054q0,10.313,5.286,17.055T238.1,99.535q8.577,0,12.59-3.4a25.79,25.79,0,0,0,5.153-5.292Q256.8,89.262,255.436,88.473Z" transform="translate(-2.59 -12.223)" style="fill:#057f99"/>
  <path d="M204.574,99.564a1.806,1.806,0,0,1-2.041-2.045V53.961a1.806,1.806,0,0,1,2.041-2.045h3.9a1.807,1.807,0,0,1,2.043,2.045V97.519a1.807,1.807,0,0,1-2.043,2.045Zm0-56.267a1.805,1.805,0,0,1-2.041-2.043v-3.9a1.8,1.8,0,0,1,2.041-2.042h3.9a1.806,1.806,0,0,1,2.043,2.042v3.9a1.807,1.807,0,0,1-2.043,2.043Z" transform="translate(-2.59 -12.223)" style="fill:#057f99"/>
  <path d="M197,81.546a9.835,9.835,0,0,0-2.472-3.885,17.112,17.112,0,0,0-5.106-3.3,34.233,34.233,0,0,0-5.695-1.928q-3.157-.789-6.965-1.758a10.768,10.768,0,0,1-3.814-1.626,5.4,5.4,0,0,1-1.86-2.215,7.158,7.158,0,0,1-.5-2.751,5.262,5.262,0,0,1,1.268-3.514,6.858,6.858,0,0,1,3.313-2.109,17.172,17.172,0,0,1,4.9-.613,17.633,17.633,0,0,1,5.4,1.013,19.2,19.2,0,0,1,4.763,2.151c1.332.906,2.316.94,2.949.088l2.044-2.639a1.425,1.425,0,0,0-.409-2.327,24.232,24.232,0,0,0-14.975-4.216,29.387,29.387,0,0,0-7.85,1.12,13.458,13.458,0,0,0-6.714,4.2,10.789,10.789,0,0,0-2.678,7.336,11.26,11.26,0,0,0,1.655,6.539,13.306,13.306,0,0,0,3.882,3.748,19.368,19.368,0,0,0,4.717,2.123q3.721,1.146,6.013,1.7a43.456,43.456,0,0,1,4.606,1.387,16.917,16.917,0,0,1,2.882,1.344,5.381,5.381,0,0,1,2.178,2.264,6.575,6.575,0,0,1,.7,2.984,6.245,6.245,0,0,1-1.476,4.353,7.539,7.539,0,0,1-3.425,2.215,15.169,15.169,0,0,1-4.446.594,21.988,21.988,0,0,1-7.511-1.188,23.293,23.293,0,0,1-5.967-3.16q-1.952-1.452-2.948-.136l-2.045,2.77c-.543.731-.345,1.524.592,2.371q1.406,1.314,6.239,3.189a32.274,32.274,0,0,0,11.593,1.865,29.678,29.678,0,0,0,8.532-1.076A14.1,14.1,0,0,0,194.8,94.13a11.56,11.56,0,0,0,2.881-7.95A14.88,14.88,0,0,0,197,81.546Z" transform="translate(-2.59 -12.223)" style="fill:#057f99"/>
  <path d="M158.349,81.555a9.9,9.9,0,0,0-2.473-3.885,17.092,17.092,0,0,0-5.105-3.291,34.725,34.725,0,0,0-5.695-1.932q-3.156-.789-6.965-1.753a10.78,10.78,0,0,1-3.813-1.626,5.374,5.374,0,0,1-1.86-2.215,7.136,7.136,0,0,1-.5-2.746,5.241,5.241,0,0,1,1.27-3.51,6.816,6.816,0,0,1,3.313-2.108,17.159,17.159,0,0,1,4.9-.614,17.628,17.628,0,0,1,5.4,1.013,19.384,19.384,0,0,1,4.764,2.147c1.33.91,2.315.935,2.952.087l2.041-2.633a1.426,1.426,0,0,0-.409-2.327,26.553,26.553,0,0,0-5.923-2.961A27.027,27.027,0,0,0,141.2,51.95a29.187,29.187,0,0,0-7.85,1.12,13.456,13.456,0,0,0-6.715,4.192,10.769,10.769,0,0,0-2.676,7.327,11.244,11.244,0,0,0,1.654,6.538,13.325,13.325,0,0,0,3.881,3.744,19.4,19.4,0,0,0,4.719,2.122q3.72,1.148,6.012,1.7a43.515,43.515,0,0,1,4.607,1.392,16.423,16.423,0,0,1,2.881,1.344,5.366,5.366,0,0,1,2.179,2.259,6.585,6.585,0,0,1,.7,2.984,6.224,6.224,0,0,1-1.476,4.348,7.55,7.55,0,0,1-3.425,2.215,15.343,15.343,0,0,1-4.446.594,22.105,22.105,0,0,1-7.511-1.188,23.176,23.176,0,0,1-5.968-3.16c-1.3-.964-2.285-1.013-2.949-.131l-2.043,2.765q-.816,1.1.59,2.371,1.406,1.314,6.239,3.184A32.283,32.283,0,0,0,141.2,99.535a29.673,29.673,0,0,0,8.532-1.076,14.053,14.053,0,0,0,6.422-4.324,11.558,11.558,0,0,0,2.881-7.945A14.891,14.891,0,0,0,158.349,81.555Z" transform="translate(-2.59 -12.223)" style="fill:#057f99"/>
  <path d="M112.48,56.668q-4.041-4.717-13.522-4.718a30.68,30.68,0,0,0-6.874.769,26.706,26.706,0,0,0-5.651,1.865,20,20,0,0,0-4.674,3.291c-1.12,1.023-1.346,1.9-.68,2.634l2.359,2.634q1.089,1.184,2.314-.132a17.22,17.22,0,0,1,3.428-2.877,17.04,17.04,0,0,1,3.97-1.8,20.079,20.079,0,0,1,5.808-.682q5.717,0,7.645,3a12.94,12.94,0,0,1,1.929,7.137v2.984q-15.018.613-22.575,4.26T78.4,86.5q0,6.148,4.016,9.591t11.458,3.447a25.519,25.519,0,0,0,7.645-1.076,23.352,23.352,0,0,0,7.012-3.8v2.152c0,1.314.6,1.977,1.79,1.977h4.13c1.379,0,2.066-.663,2.066-1.977V69.594Q116.518,61.392,112.48,56.668Zm-3.948,33.018a14.909,14.909,0,0,1-6.444,3.466,31.862,31.862,0,0,1-6.624.662,20.184,20.184,0,0,1-4.358-.463,5.273,5.273,0,0,1-3.268-2.108,7.352,7.352,0,0,1-1.179-4.366,7.09,7.09,0,0,1,2.45-5.293,13.878,13.878,0,0,1,6.355-3.247,90.38,90.38,0,0,1,13.068-1.6Z" transform="translate(-2.59 -12.223)" style="fill:#057f99"/>
  <path d="M64.026,99.564c-1.362,0-2.043-.658-2.043-1.967V43.1a3.255,3.255,0,0,1,.454-1.66l3.176-5.548q.863-1.526,1.408-1.526h1.588q1.361,0,1.361,1.526V97.6c0,1.309-.68,1.967-2.041,1.967Z" transform="translate(-2.59 -12.223)" style="fill:#057f99"/>
  <path d="M56.725,84.355,52.958,82.3q-1.861-1-3.267,1.529A19.841,19.841,0,0,1,44,89.851q-3.927,2.877-10.46,2.877-11.346,0-16.495-6.781t-5.151-19q0-12.21,5.151-19t16.495-6.781q6.354,0,9.754,2.4a15.736,15.736,0,0,1,4.9,5.148q1.406,2.662,3.221,1.658L55,48.365q1.677-.962.408-3.488a17.287,17.287,0,0,0-8.076-7.7q-5.626-2.816-14.25-2.814-14.748,0-22.621,8.658T2.59,66.945q0,15.27,7.872,23.929t22.621,8.661q9.167,0,15.2-3.34A20.953,20.953,0,0,0,57,87.841Q58.359,85.27,56.725,84.355Z" transform="translate(-2.59 -12.223)" style="fill:#057f99"/>
</svg>
