<?xml version="1.0" encoding="UTF-8" standalone="no"?>
<svg xmlns:dc="http://purl.org/dc/elements/1.1/" xmlns:cc="http://creativecommons.org/ns#" xmlns:rdf="http://www.w3.org/1999/02/22-rdf-syntax-ns#" xmlns:svg="http://www.w3.org/2000/svg" xmlns="http://www.w3.org/2000/svg" xmlns:sodipodi="http://sodipodi.sourceforge.net/DTD/sodipodi-0.dtd" xmlns:inkscape="http://www.inkscape.org/namespaces/inkscape" viewBox="0 0 589.344 589.358" version="1.1" id="svg17" sodipodi:docname="classicpress-logo-coin-gradient-on-lightgray.svg" inkscape:version="0.92.1 r15371">
	<metadata id="metadata21">
		<rdf:RDF>
			<cc:Work rdf:about="">
				<dc:format>image/svg+xml</dc:format>
				<dc:type rdf:resource="http://purl.org/dc/dcmitype/StillImage"/>
				<dc:title>classicpress-logo-coin-gradient-on-white</dc:title>
			</cc:Work>
		</rdf:RDF>
	</metadata>
	<sodipodi:namedview pagecolor="#ffffff" bordercolor="#666666" borderopacity="1" objecttolerance="10" gridtolerance="10" guidetolerance="10" inkscape:pageopacity="0" inkscape:pageshadow="2" inkscape:window-width="2118" inkscape:window-height="1634" id="namedview19" showgrid="false" inkscape:zoom="1.1326033" inkscape:cx="255.27432" inkscape:cy="312.27837" inkscape:window-x="0" inkscape:window-y="49" inkscape:window-maximized="0" inkscape:current-layer="svg17"/>
	<defs id="defs9">
		<linearGradient id="a" x1="333.382" y1="334.61" x2="229.647" y2="230.875" gradientUnits="userSpaceOnUse">
			<stop offset="0" stop-color="#3ebca6" id="stop2"/>
			<stop offset="0.5" stop-color="#057f99" id="stop4"/>
			<stop offset="1" stop-color="#006b81" id="stop6"/>
		</linearGradient>
	</defs>
	<title id="title11">classicpress-logo-coin-gradient-on-lightgray</title>
	<path d="M299.625,4.745C136.882,4.745,4.956,136.677,4.956,299.421S136.882,594.1,299.625,594.1,594.3,462.179,594.3,299.421,462.369,4.745,299.625,4.745Z" transform="translate(-4.956 -4.745)" style="fill:#f0f0f0;fill-opacity:1" id="path13"/>
	<path d="M463.934,134.332l-.014-.021a8.325,8.325,0,0,0-6.207-3.146c-42.46,2.391-110.864,27.276-113.749,28.337a6.94,6.94,0,0,0-3.824,3.429L330.5,182.182l-7.1-7.106a6.927,6.927,0,0,0-8.166-1.244c-8.137,4.249-49.242,26.046-57.987,36.658-5.077,6.137-9.015,19.64-11.666,31.539l-4.659-9.269a6.921,6.921,0,0,0-4.893-3.726,6.835,6.835,0,0,0-5.946,1.605c-2.459,2.157-53.774,48.331-43.091,105.9,41.056-58.532,90.4-107.746,171.107-147.373a6.98,6.98,0,0,1,6.173,12.521c-.008,0-.015.007-.022.007-4.694,2.312-9.255,4.666-13.73,7.041-1.138.6-2.256,1.209-3.38,1.817q-5.154,2.79-10.137,5.635c-1.083.623-2.157,1.231-3.225,1.853q-12.842,7.487-24.532,15.405c-.644.432-1.273.884-1.924,1.322q-5.089,3.489-9.989,7.056c-.573.417-1.139.834-1.711,1.259-76.165,56.184-116.456,127.379-164.751,212.77a6.98,6.98,0,0,0,6.079,10.407l.008-.014a6.946,6.946,0,0,0,6.073-3.535C162.259,428.7,180.2,397,199.674,367.662c7.706,9.531,18.727,14.522,32.45,14.522,52.792,0,139.972-77.218,148.753-102.09A6.982,6.982,0,0,0,375.991,271l-23.267-5.825,50.656-8.442a6.919,6.919,0,0,0,5.091-3.775l55.852-111.691A7.177,7.177,0,0,0,463.934,134.332Z" transform="translate(-4.956 -4.745)" style="fill:url(#a)" id="path15"/>
</svg>
