<?xml version="1.0"?>
<svg xmlns="http://www.w3.org/2000/svg" viewBox="0 0 594.721 115.322">
  <title>classicpress-logo-wordmark-white-on-transparent</title>
  <path d="M596.936,13.61l-.008-.012a2.544,2.544,0,0,0-2.136-1.082c-14.612.822-38.152,9.386-39.145,9.751a2.394,2.394,0,0,0-1.316,1.18l-3.317,6.625-2.445-2.445a2.383,2.383,0,0,0-2.81-.428c-2.8,1.462-16.946,8.963-19.956,12.615-1.747,2.112-3.1,6.759-4.014,10.854l-1.6-3.19A2.381,2.381,0,0,0,518.5,46.2a2.356,2.356,0,0,0-2.047.552c-.846.743-18.505,16.633-14.829,36.445,14.129-20.143,31.109-37.08,58.885-50.717a2.4,2.4,0,0,1,2.124,4.309l-.008,0c-1.615.8-3.184,1.605-4.725,2.423-.391.207-.776.416-1.163.625q-1.773.96-3.488,1.939c-.373.214-.743.424-1.11.638q-4.419,2.576-8.443,5.3c-.221.149-.438.3-.662.455q-1.75,1.2-3.437,2.428c-.2.144-.392.288-.589.434-26.212,19.335-40.077,43.836-56.7,73.222a2.4,2.4,0,0,0,2.093,3.582l0,0a2.389,2.389,0,0,0,2.09-1.217c6.618-11.7,12.791-22.613,19.494-32.71a13.7,13.7,0,0,0,11.167,5c18.168,0,48.17-26.574,51.192-35.133a2.4,2.4,0,0,0-1.681-3.129l-8.008-2.005,17.433-2.905a2.383,2.383,0,0,0,1.752-1.3l19.221-38.437A2.461,2.461,0,0,0,596.936,13.61Z" transform="translate(-2.592 -12.513)" style="fill:#fff"/>
  <path d="M462.564,81.67a9.89,9.89,0,0,0-2.475-3.883,17.06,17.06,0,0,0-5.1-3.29,34.3,34.3,0,0,0-5.693-1.932q-3.153-.787-6.961-1.756a10.782,10.782,0,0,1-3.813-1.623,5.364,5.364,0,0,1-1.859-2.217,7.1,7.1,0,0,1-.5-2.742,5.25,5.25,0,0,1,1.268-3.511,6.82,6.82,0,0,1,3.311-2.1,17.147,17.147,0,0,1,4.9-.613,17.689,17.689,0,0,1,5.4,1.009,19.378,19.378,0,0,1,4.762,2.149q1.995,1.361,2.948.087l2.042-2.632a1.425,1.425,0,0,0-.409-2.324,26.551,26.551,0,0,0-5.92-2.963,26.973,26.973,0,0,0-9.048-1.251,29.358,29.358,0,0,0-7.847,1.119,13.441,13.441,0,0,0-6.713,4.19,10.771,10.771,0,0,0-2.674,7.328,11.255,11.255,0,0,0,1.652,6.533,13.367,13.367,0,0,0,3.881,3.745,19.427,19.427,0,0,0,4.715,2.122q3.72,1.144,6.01,1.7a43.632,43.632,0,0,1,4.606,1.391,16.285,16.285,0,0,1,2.876,1.339A5.332,5.332,0,0,1,454.1,83.8a6.516,6.516,0,0,1,.706,2.979,6.22,6.22,0,0,1-1.475,4.345,7.471,7.471,0,0,1-3.423,2.214,15.18,15.18,0,0,1-4.445.594,22.083,22.083,0,0,1-7.506-1.183,23.278,23.278,0,0,1-5.966-3.163q-1.95-1.445-2.947-.126L427,92.225q-.815,1.095.591,2.37,1.405,1.314,6.236,3.177a32.135,32.135,0,0,0,11.589,1.864,29.627,29.627,0,0,0,8.528-1.071,14.1,14.1,0,0,0,6.418-4.325,11.539,11.539,0,0,0,2.879-7.937A14.911,14.911,0,0,0,462.564,81.67Z" transform="translate(-2.592 -12.513)" style="fill:#fff"/>
  <path d="M423.926,81.67a9.848,9.848,0,0,0-2.472-3.883,17.06,17.06,0,0,0-5.1-3.29,34.271,34.271,0,0,0-5.691-1.932q-3.158-.787-6.961-1.756a10.782,10.782,0,0,1-3.813-1.623,5.364,5.364,0,0,1-1.859-2.217,7.1,7.1,0,0,1-.5-2.742,5.25,5.25,0,0,1,1.267-3.511,6.846,6.846,0,0,1,3.312-2.1,17.164,17.164,0,0,1,4.9-.613,17.668,17.668,0,0,1,5.4,1.009,19.325,19.325,0,0,1,4.762,2.149q2,1.361,2.951.087l2.039-2.632a1.422,1.422,0,0,0-.408-2.324,26.508,26.508,0,0,0-5.92-2.963,26.976,26.976,0,0,0-9.049-1.251,29.348,29.348,0,0,0-7.844,1.119,13.441,13.441,0,0,0-6.713,4.19,10.787,10.787,0,0,0-2.676,7.328,11.255,11.255,0,0,0,1.654,6.533,13.343,13.343,0,0,0,3.881,3.745,19.427,19.427,0,0,0,4.715,2.122q3.72,1.144,6.01,1.7a43.583,43.583,0,0,1,4.6,1.391,16.457,16.457,0,0,1,2.881,1.339,5.363,5.363,0,0,1,2.175,2.262,6.542,6.542,0,0,1,.706,2.979,6.22,6.22,0,0,1-1.475,4.345,7.472,7.472,0,0,1-3.425,2.214,15.157,15.157,0,0,1-4.443.594,22.113,22.113,0,0,1-7.509-1.183,23.226,23.226,0,0,1-5.963-3.163q-1.953-1.445-2.947-.126l-2.044,2.764q-.813,1.095.592,2.37,1.4,1.314,6.236,3.177a32.129,32.129,0,0,0,11.586,1.864,29.617,29.617,0,0,0,8.528-1.071,14.074,14.074,0,0,0,6.419-4.325,11.53,11.53,0,0,0,2.88-7.937A14.822,14.822,0,0,0,423.926,81.67Z" transform="translate(-2.592 -12.513)" style="fill:#fff"/>
  <path d="M384.52,76.823q0-12.948-5.737-18.849a19.317,19.317,0,0,0-14.448-5.9q-10.474,0-16.1,6.45T342.61,75.855q0,10.882,5.374,17.333T364.7,99.636q8.708,0,12.766-2.788t4.92-4.059q1.044-1.533,0-2.413l-2.674-2.239c-.907-.759-1.844-.53-2.813.7a15.567,15.567,0,0,1-4.156,3.382q-2.832,1.716-8.131,1.713a13.631,13.631,0,0,1-9-3.324q-3.975-3.321-4.75-11.81h31.786C383.9,78.8,384.52,78.137,384.52,76.823ZM350.865,73q.679-8.89,4.355-12.407a12.453,12.453,0,0,1,8.935-3.516,10.11,10.11,0,0,1,9.07,4.786A21.292,21.292,0,0,1,376.493,73Z" transform="translate(-2.592 -12.513)" style="fill:#fff"/>
  <path d="M318.646,99.67a1.8,1.8,0,0,1-2.019-2.044V54.084a1.8,1.8,0,0,1,2.041-2.042h3.81a1.8,1.8,0,0,1,2.042,2.042v5.442a17.431,17.431,0,0,1,5.177-6.168,12.638,12.638,0,0,1,7.429-2.087,11.88,11.88,0,0,1,4.121.5,1.041,1.041,0,0,1,.772,1.36l-1.044,3.72c-.151.543-.545.757-1.178.635a15.44,15.44,0,0,0-3.012-.319,10.477,10.477,0,0,0-8.8,4.786q-3.471,4.788-3.467,13.042V97.626A1.8,1.8,0,0,1,322.5,99.67Z" transform="translate(-2.592 -12.513)" style="fill:#fff"/>
  <path d="M271.461,66.1h12.745q9.974,0,13.606-2.834t3.627-9.185q0-6.348-3.627-9.185t-13.606-2.835H271.461Zm-6.44,33.567q-2.27,0-2.268-2.5V37.12q0-2.493,2.268-2.494H284.07q15.418,0,20.82,5.193t5.4,14.265q0,9.072-5.4,14.262t-20.82,5.2H271.461v23.63c0,1.664-.759,2.5-2.267,2.5Z" transform="translate(-2.592 -12.513)" style="fill:#fff"/>
  <path d="M255.32,88.58l-3.039-1.752c-1-.589-1.89-.19-2.676,1.183a12.611,12.611,0,0,1-3.9,4.058q-2.679,1.869-7.711,1.864a11.419,11.419,0,0,1-9.615-4.428q-3.4-4.431-3.4-13.65t3.4-13.645a11.421,11.421,0,0,1,9.615-4.433q4.763,0,7.144,1.45a11.391,11.391,0,0,1,3.7,3.465q1.362,2.106,2.72,1.185l2.857-1.8a1.47,1.47,0,0,0,.411-2.326,18.888,18.888,0,0,0-5.6-5.156q-3.876-2.522-11.226-2.523-10.882,0-16.168,6.735t-5.284,17.046q0,10.314,5.284,17.046t16.168,6.735q8.573,0,12.587-3.4a25.945,25.945,0,0,0,5.148-5.289Q256.681,89.366,255.32,88.58Z" transform="translate(-2.592 -12.513)" style="fill:#fff"/>
  <path d="M204.483,99.67a1.805,1.805,0,0,1-2.041-2.044V54.084a1.805,1.805,0,0,1,2.041-2.042h3.9a1.8,1.8,0,0,1,2.039,2.042V97.626a1.8,1.8,0,0,1-2.039,2.044Zm0-56.246a1.8,1.8,0,0,1-2.041-2.039v-3.9a1.805,1.805,0,0,1,2.041-2.042h3.9a1.8,1.8,0,0,1,2.039,2.042v3.9a1.8,1.8,0,0,1-2.039,2.039Z" transform="translate(-2.592 -12.513)" style="fill:#fff"/>
  <path d="M196.916,81.66a9.829,9.829,0,0,0-2.472-3.888,17.166,17.166,0,0,0-5.1-3.294,34.6,34.6,0,0,0-5.693-1.932q-3.155-.789-6.961-1.754a10.833,10.833,0,0,1-3.811-1.626,5.362,5.362,0,0,1-1.859-2.216,7.1,7.1,0,0,1-.5-2.745,5.254,5.254,0,0,1,1.267-3.513,6.84,6.84,0,0,1,3.312-2.11,17.19,17.19,0,0,1,4.9-.613,17.79,17.79,0,0,1,5.4,1.01,19.377,19.377,0,0,1,4.761,2.153q2,1.362,2.947.088l2.043-2.638a1.425,1.425,0,0,0-.408-2.326,26.551,26.551,0,0,0-5.92-2.963,26.924,26.924,0,0,0-9.049-1.251,29.287,29.287,0,0,0-7.846,1.119,13.464,13.464,0,0,0-6.711,4.2,10.786,10.786,0,0,0-2.676,7.331,11.253,11.253,0,0,0,1.654,6.538,13.357,13.357,0,0,0,3.879,3.744,19.415,19.415,0,0,0,4.717,2.127q3.72,1.146,6.01,1.7a43.521,43.521,0,0,1,4.6,1.392,16.82,16.82,0,0,1,2.881,1.338,5.442,5.442,0,0,1,2.178,2.263,6.613,6.613,0,0,1,.7,2.988,6.219,6.219,0,0,1-1.475,4.345,7.491,7.491,0,0,1-3.423,2.214,15.157,15.157,0,0,1-4.446.6,22.088,22.088,0,0,1-7.506-1.188,23.105,23.105,0,0,1-5.963-3.163q-1.953-1.444-2.949-.131l-2.041,2.764q-.819,1.1.588,2.375,1.406,1.314,6.236,3.182a32.153,32.153,0,0,0,11.589,1.869A29.427,29.427,0,0,0,188.3,98.56a14.043,14.043,0,0,0,6.419-4.32,11.578,11.578,0,0,0,2.881-7.952A14.874,14.874,0,0,0,196.916,81.66Z" transform="translate(-2.592 -12.513)" style="fill:#fff"/>
  <path d="M158.281,81.67a9.916,9.916,0,0,0-2.472-3.883,17.125,17.125,0,0,0-5.1-3.29,34.422,34.422,0,0,0-5.693-1.932q-3.155-.787-6.962-1.756a10.768,10.768,0,0,1-3.812-1.623,5.357,5.357,0,0,1-1.859-2.217,7.1,7.1,0,0,1-.5-2.742,5.25,5.25,0,0,1,1.268-3.511,6.843,6.843,0,0,1,3.311-2.1,17.162,17.162,0,0,1,4.9-.613,17.694,17.694,0,0,1,5.4,1.009,19.314,19.314,0,0,1,4.759,2.149q2,1.361,2.952.087l2.041-2.632a1.424,1.424,0,0,0-.408-2.324,26.573,26.573,0,0,0-5.92-2.963,26.98,26.98,0,0,0-9.051-1.251,29.342,29.342,0,0,0-7.844,1.119,13.445,13.445,0,0,0-6.713,4.19,10.774,10.774,0,0,0-2.677,7.328,11.247,11.247,0,0,0,1.655,6.533,13.327,13.327,0,0,0,3.88,3.745,19.451,19.451,0,0,0,4.716,2.122q3.718,1.144,6.01,1.7a43.231,43.231,0,0,1,4.6,1.391,16.39,16.39,0,0,1,2.881,1.339,5.356,5.356,0,0,1,2.177,2.262,6.539,6.539,0,0,1,.7,2.979,6.219,6.219,0,0,1-1.474,4.345,7.481,7.481,0,0,1-3.423,2.214,15.178,15.178,0,0,1-4.446.594,22.091,22.091,0,0,1-7.506-1.183,23.262,23.262,0,0,1-5.966-3.163q-1.949-1.445-2.946-.126l-2.044,2.764q-.813,1.095.591,2.37,1.405,1.314,6.236,3.177a32.143,32.143,0,0,0,11.587,1.864,29.642,29.642,0,0,0,8.53-1.071,14.086,14.086,0,0,0,6.416-4.325A11.526,11.526,0,0,0,158.96,86.3,14.881,14.881,0,0,0,158.281,81.67Z" transform="translate(-2.592 -12.513)" style="fill:#fff"/>
  <path d="M112.432,56.792q-4.039-4.716-13.516-4.718a30.79,30.79,0,0,0-6.871.769A26.63,26.63,0,0,0,86.4,54.707,19.93,19.93,0,0,0,81.726,58q-1.678,1.536-.681,2.63l2.36,2.635q1.087,1.182,2.312-.134a17,17,0,0,1,3.425-2.874,17.207,17.207,0,0,1,3.969-1.8,20.119,20.119,0,0,1,5.8-.678q5.717,0,7.642,3a12.918,12.918,0,0,1,1.928,7.129V70.9q-15.012.617-22.565,4.258T78.369,86.609q0,6.14,4.014,9.587t11.453,3.44a25.475,25.475,0,0,0,7.642-1.071,23.322,23.322,0,0,0,7.008-3.8v2.151q0,1.971,1.79,1.97H114.4c1.379,0,2.065-.656,2.065-1.97V69.714Q116.468,61.509,112.432,56.792Zm-3.946,33a14.961,14.961,0,0,1-6.441,3.465,32.193,32.193,0,0,1-6.623.657,20.2,20.2,0,0,1-4.353-.457A5.264,5.264,0,0,1,87.8,91.349a7.335,7.335,0,0,1-1.178-4.365A7.088,7.088,0,0,1,89.072,81.7a13.778,13.778,0,0,1,6.35-3.246,90.49,90.49,0,0,1,13.064-1.6Z" transform="translate(-2.592 -12.513)" style="fill:#fff"/>
  <path d="M64,99.67q-2.04,0-2.039-1.966V43.225a3.255,3.255,0,0,1,.452-1.66l3.176-5.542q.861-1.53,1.406-1.528H68.58q1.362,0,1.363,1.528V97.7q0,1.964-2.042,1.966Z" transform="translate(-2.592 -12.513)" style="fill:#fff"/>
  <path d="M56.7,84.463l-3.764-2.048q-1.861-1-3.265,1.527a19.773,19.773,0,0,1-5.691,6.015q-3.924,2.876-10.455,2.881-11.343,0-16.489-6.783T11.892,67.064q0-12.208,5.146-18.988T33.527,41.3q6.351,0,9.749,2.4a15.684,15.684,0,0,1,4.9,5.146Q49.582,51.5,51.4,50.5l3.584-2.005q1.68-.963.409-3.489a17.294,17.294,0,0,0-8.073-7.695q-5.623-2.816-14.243-2.813-14.741,0-22.611,8.654T2.592,67.064q0,15.267,7.869,23.92t22.611,8.652q9.163,0,15.2-3.333a20.983,20.983,0,0,0,8.708-8.351Q58.335,85.383,56.7,84.463Z" transform="translate(-2.592 -12.513)" style="fill:#fff"/>
</svg>
