<?xml version="1.0"?>
<svg xmlns="http://www.w3.org/2000/svg" viewBox="0 0 589.537 589.591">
  <title>classicpress-logo-feather-white-on-transparent</title>
  <path d="M593.359,10.92l-.038-.061C591.3,7.507,586.373,5.1,582.4,5.324,507.694,9.531,387.342,53.314,382.267,55.18a12.221,12.221,0,0,0-6.729,6.033L358.583,95.085l-12.5-12.5a12.19,12.19,0,0,0-14.369-2.189c-14.316,7.477-86.637,45.827-102.024,64.5-8.932,10.8-15.861,34.556-20.525,55.492l-8.2-16.308a12.174,12.174,0,0,0-8.608-6.556,12.021,12.021,0,0,0-10.462,2.824c-4.328,3.794-94.612,85.034-75.815,186.326C178.316,263.684,265.127,177.1,407.133,107.374a12.281,12.281,0,0,1,10.86,22.03c-.014,0-.026.013-.039.013-8.259,4.066-16.282,8.209-24.157,12.388-2,1.057-3.968,2.127-5.946,3.2q-9.067,4.906-17.836,9.914c-1.9,1.095-3.795,2.165-5.674,3.26q-22.594,13.172-43.163,27.1c-1.132.759-2.239,1.556-3.384,2.326q-8.955,6.138-17.576,12.414c-1.007.735-2,1.469-3.011,2.215C163.2,301.088,92.311,426.35,7.339,576.59a12.281,12.281,0,0,0,10.7,18.31l.012-.024a12.222,12.222,0,0,0,10.686-6.219c33.834-59.833,65.393-115.61,99.663-167.232,13.558,16.768,32.95,25.549,57.094,25.549,92.883,0,246.271-135.86,261.72-179.62a12.282,12.282,0,0,0-8.6-16l-40.938-10.249,89.127-14.853a12.173,12.173,0,0,0,8.956-6.642L594.03,23.1A12.583,12.583,0,0,0,593.359,10.92Z" transform="translate(-5.754 -5.309)" style="fill:#fff"/>
</svg>
