<svg viewBox="0 0 600 120" xmlns="http://www.w3.org/2000/svg"><defs><linearGradient id="a" x1="220.41" x2="206.08" y1="28.1" y2="13.77" gradientTransform="translate(2 2)" gradientUnits="userSpaceOnUse"><stop stop-color="#3dbca6" offset="0"/><stop stop-color="#017f98" offset=".5"/><stop stop-color="#006b81" offset="1"/></linearGradient></defs><path d="M240.43 2.44a1 1 0 0 0-.85-.44c-5.87.31-15.32 3.77-15.71 3.92a.91.91 0 0 0-.53.47L222 9.05l-1-1a.94.94 0 0 0-1.12-.17c-1.13.58-6.8 3.59-8 5.06a11.89 11.89 0 0 0-1.61 4.36l-.64-1.3a1 1 0 0 0-.67-.52.93.93 0 0 0-.82.22c-.35.3-7.43 6.68-6 14.63A59.34 59.34 0 0 1 225.82 10a1 1 0 0 1 1.29.45 1 1 0 0 1-.44 1.28c-.65.31-1.28.64-1.9 1l-.47.25c-.47.26-.94.51-1.4.78l-.44.25q-1.77 1-3.39 2.13l-.27.18c-.47.32-.93.65-1.38 1l-.23.17c-10.52 7.76-16.09 17.59-22.76 29.39a1 1 0 0 0 .37 1.31.9.9 0 0 0 .47.13 1 1 0 0 0 .84-.49c2.66-4.7 5.13-9.08 7.82-13.13a5.54 5.54 0 0 0 4.49 2c7.29 0 19.33-10.67 20.54-14.11a.94.94 0 0 0-.06-.77.92.92 0 0 0-.61-.48l-3.21-.81 7-1.16a1 1 0 0 0 .71-.52l7.7-15.45a1 1 0 0 0-.06-1" fill="url(#a)" transform="translate(-2.998 -2.995) scale(2.4979)"/><path d="M1.998 56.754q0-15.287 7.893-23.98t22.656-8.667A31.898 31.898 0 0 1 46.96 26.98a17.26 17.26 0 0 1 8.093 7.718c.85 1.699.725 2.848-.4 3.497l-3.596 1.998q-1.824 1-3.223-1.648a16.136 16.136 0 0 0-4.995-5.17 16.836 16.836 0 0 0-9.767-2.499c-7.494 0-13.09 2.273-16.536 6.795s-5.171 10.89-5.171 19.034 1.724 14.512 5.17 19.058 8.943 6.795 16.537 6.795a17.335 17.335 0 0 0 10.466-2.898 19.983 19.983 0 0 0 5.67-5.97c.924-1.698 2.024-2.223 3.272-1.548l3.772 2.073c1.1.6 1.174 1.773.275 3.472a21.057 21.057 0 0 1-8.743 8.393 31.274 31.274 0 0 1-15.237 3.347q-14.762 0-22.656-8.693t-7.893-23.98M63.57 89.427a1.774 1.774 0 0 1-2.048-1.973V32.85a3.272 3.272 0 0 1 .45-1.649l3.172-5.57c.574-1.025 1.049-1.524 1.424-1.524h1.598c.9 0 1.35.5 1.35 1.524v61.848a1.774 1.774 0 0 1-2.05 1.973zm22.681-12.69a7.494 7.494 0 0 0 1.174 4.372 5.37 5.37 0 0 0 3.272 2.123 20.758 20.758 0 0 0 4.372.45 33.497 33.497 0 0 0 6.644-.65 14.987 14.987 0 0 0 6.445-3.472V66.571a92.872 92.872 0 0 0-13.09 1.599 14.063 14.063 0 0 0-6.369 3.272 7.094 7.094 0 0 0-2.498 5.296m-8.293-.375a12.04 12.04 0 0 1 7.494-11.49c4.996-2.498 12.49-3.847 22.48-4.272v-2.997a13.114 13.114 0 0 0-1.923-7.144c-1.298-1.999-3.846-2.998-7.668-2.998a20.308 20.308 0 0 0-5.82.675 16.91 16.91 0 0 0-3.972 1.798 18.135 18.135 0 0 0-3.447 2.873c-.8.899-1.574.924-2.323.15l-2.348-2.648c-.674-.725-.45-1.624.674-2.648a20.758 20.758 0 0 1 4.971-3.197 27.477 27.477 0 0 1 5.646-1.874 32.023 32.023 0 0 1 6.894-.749q9.517 0 13.563 4.721a19.259 19.259 0 0 1 4.047 12.89v27.226a1.798 1.798 0 0 1-2.073 1.999h-4.147c-1.199 0-1.798-.675-1.798-1.999v-2.248a22.93 22.93 0 0 1-7.02 3.797 25.379 25.379 0 0 1-7.668 1.1 16.96 16.96 0 0 1-11.54-3.373 11.915 11.915 0 0 1-4.047-9.592m45.137 8.068c-.924-.85-1.124-1.648-.6-2.373l1.974-2.847c.674-.875 1.674-.825 2.973.124a23.106 23.106 0 0 0 5.97 3.173 21.982 21.982 0 0 0 7.493 1.199 15.262 15.262 0 0 0 4.471-.6 7.494 7.494 0 0 0 3.423-2.223 6.145 6.145 0 0 0 1.473-4.346 6.445 6.445 0 0 0-.7-2.998 5.42 5.42 0 0 0-2.172-2.273 16.586 16.586 0 0 0-2.898-1.349 46.46 46.46 0 0 0-4.621-1.398c-1.524-.35-3.522-.925-6.02-1.699a19.134 19.134 0 0 1-4.72-2.123 13.514 13.514 0 0 1-3.898-3.747 11.315 11.315 0 0 1-1.548-6.495 10.866 10.866 0 0 1 2.672-7.493 13.289 13.289 0 0 1 6.745-4.197 28.376 28.376 0 0 1 7.868-1.124 26.753 26.753 0 0 1 9.067 1.25 25.703 25.703 0 0 1 5.92 2.972c.975.674 1.125 1.448.425 2.323l-1.948 2.747c-.65.85-1.624.825-2.973 0a19.284 19.284 0 0 0-4.77-2.148 16.711 16.711 0 0 0-10.317-.4 6.72 6.72 0 0 0-3.322 2.124 5.196 5.196 0 0 0-1.274 3.497 7.194 7.194 0 0 0 .5 2.747 5.346 5.346 0 0 0 1.873 2.224 10.516 10.516 0 0 0 3.822 1.648l6.969 1.749a34.97 34.97 0 0 1 5.72 1.923 17.485 17.485 0 0 1 4.996 3.297 10.366 10.366 0 0 1 2.498 3.897 15.137 15.137 0 0 1 .674 4.646 11.59 11.59 0 0 1-2.897 7.968 13.913 13.913 0 0 1-6.495 4.222 29.45 29.45 0 0 1-8.543 1.099 32.473 32.473 0 0 1-11.44-1.873 22.231 22.231 0 0 1-6.37-3.123m38.842 0c-.949-.85-1.149-1.648-.599-2.373l2.048-2.772c.675-.9 1.649-.85 2.973.124a23.106 23.106 0 0 0 5.97 3.173 21.882 21.882 0 0 0 7.493 1.199 15.362 15.362 0 0 0 4.472-.6 7.494 7.494 0 0 0 3.422-2.223 6.345 6.345 0 0 0 1.474-4.371 6.594 6.594 0 0 0-.7-2.998 5.52 5.52 0 0 0-2.173-2.248 16.586 16.586 0 0 0-2.898-1.349 40.666 40.666 0 0 0-4.62-1.398c-1.524-.375-3.523-.95-6.02-1.7a19.983 19.983 0 0 1-4.722-2.122A13.289 13.289 0 0 1 164.087 61a11.315 11.315 0 0 1-1.724-6.545 10.741 10.741 0 0 1 2.673-7.493 13.414 13.414 0 0 1 6.82-4.147 29.35 29.35 0 0 1 7.867-1.124 27.477 27.477 0 0 1 9.093 1.25 28.451 28.451 0 0 1 5.92 2.972 1.449 1.449 0 0 1 .425 2.348l-2.049 2.647c-.65.85-1.623.8-2.972 0a18.81 18.81 0 0 0-4.771-2.148 17.785 17.785 0 0 0-5.42-1.024 16.536 16.536 0 0 0-4.997.625 6.694 6.694 0 0 0-3.322 2.098 5.27 5.27 0 0 0-1.274 3.522 7.494 7.494 0 0 0 .5 2.772 5.296 5.296 0 0 0 1.873 2.224 10.966 10.966 0 0 0 3.822 1.623l6.97 1.749a33.347 33.347 0 0 1 5.82 1.848 17.285 17.285 0 0 1 4.995 3.297 9.992 9.992 0 0 1 2.498 3.897 15.137 15.137 0 0 1 .675 4.646 11.59 11.59 0 0 1-2.898 7.969 13.913 13.913 0 0 1-6.42 4.32 29.5 29.5 0 0 1-8.567 1.1 32.473 32.473 0 0 1-11.616-1.873 22.231 22.231 0 0 1-6.145-3.123m42.465 4.996a1.823 1.823 0 0 1-2.048-2.048V43.74a1.823 1.823 0 0 1 2.048-2.048h3.996a1.823 1.823 0 0 1 2.049 2.048v43.664a1.823 1.823 0 0 1-2.049 2.048zm0-56.403a1.798 1.798 0 0 1-2.048-2.023v-3.897a1.823 1.823 0 0 1 2.048-2.048h3.996a1.823 1.823 0 0 1 2.049 2.048v3.922a1.798 1.798 0 0 1-2.049 2.023zm12.165 32.548a26.877 26.877 0 0 1 5.32-17.086q5.32-6.744 16.211-6.744a20.633 20.633 0 0 1 11.266 2.498 18.76 18.76 0 0 1 5.595 5.22 1.474 1.474 0 0 1-.424 2.324l-2.848 1.798c-.924.625-1.823.225-2.748-1.174a11.016 11.016 0 0 0-3.697-3.472A13.988 13.988 0 0 0 238 47.487a11.465 11.465 0 0 0-9.641 4.472c-2.273 2.972-3.398 7.493-3.398 13.688s1.125 10.716 3.398 13.688a11.49 11.49 0 0 0 9.641 4.447 13.489 13.489 0 0 0 7.744-1.874 12.69 12.69 0 0 0 3.897-4.071q1.199-2.049 2.697-1.2l3.048 1.774c.9.525 1.049 1.324.4 2.498a25.828 25.828 0 0 1-5.171 5.296q-4.022 3.222-12.615 3.222c-7.268 0-12.664-2.273-16.21-6.77a26.877 26.877 0 0 1-5.296-17.085m55.053-9.767h12.715q9.991 0 13.638-2.847a10.99 10.99 0 0 0 3.847-9.218 10.94 10.94 0 0 0-3.772-9.267q-3.722-2.772-13.713-2.772h-12.79zm-6.444 33.622c-1.524 0-2.273-.85-2.273-2.498v-60.2c0-1.648.749-2.497 2.273-2.497h19.159c10.29 0 17.26 1.748 20.857 5.22a18.86 18.86 0 0 1 5.42 14.288 18.884 18.884 0 0 1-5.42 14.313c-3.597 3.472-10.566 5.196-20.857 5.196h-12.665v23.68c0 1.649-.75 2.498-2.273 2.498zm53.755 0a1.798 1.798 0 0 1-2.024-2.048V43.74a1.823 1.823 0 0 1 2.048-2.048h3.822a1.823 1.823 0 0 1 2.049 2.048v5.47a17.335 17.335 0 0 1 5.195-6.194 12.64 12.64 0 0 1 7.494-2.098 12.24 12.24 0 0 1 4.146.5 1.05 1.05 0 0 1 .75 1.373l-1.05 3.722c-.15.55-.524.774-1.173.65a14.488 14.488 0 0 0-3.023-.325 10.516 10.516 0 0 0-8.817 4.796 21.882 21.882 0 0 0-3.472 13.089v22.68a1.798 1.798 0 0 1-2.024 2.049zm32.297-26.728h25.704a21.607 21.607 0 0 0-3.272-11.165 10.141 10.141 0 0 0-9.093-4.796 12.49 12.49 0 0 0-8.967 3.522c-2.498 2.373-3.897 6.494-4.372 12.49m-8.268 2.872a25.504 25.504 0 0 1 5.646-17.485 20.283 20.283 0 0 1 16.136-6.445 19.459 19.459 0 0 1 14.488 5.895c3.822 3.947 5.745 10.267 5.745 18.91 0 1.323-.624 1.973-1.873 1.973h-31.874q.8 8.492 4.771 11.84a13.688 13.688 0 0 0 9.018 3.347 15.912 15.912 0 0 0 8.168-1.724 15.537 15.537 0 0 0 4.146-3.397c.975-1.224 1.924-1.474 2.823-.7l2.698 2.249c.7.574.7 1.399 0 2.498a22.181 22.181 0 0 1-4.996 4.071 23.056 23.056 0 0 1-12.74 2.773c-7.493 0-13.163-2.173-16.76-6.47a26.328 26.328 0 0 1-5.396-17.485m46.461 18.96c-.924-.85-1.124-1.65-.574-2.374l2.048-2.772c.65-.875 1.649-.825 2.948.124a23.53 23.53 0 0 0 5.97 3.173 22.031 22.031 0 0 0 7.493 1.199 15.187 15.187 0 0 0 4.446-.6 7.494 7.494 0 0 0 3.423-2.223 6.17 6.17 0 0 0 1.498-4.346 6.47 6.47 0 0 0-.724-2.998 5.296 5.296 0 0 0-2.173-2.273 15.787 15.787 0 0 0-2.898-1.349 46.011 46.011 0 0 0-4.596-1.398c-1.549-.35-3.547-.925-6.045-1.7a19.983 19.983 0 0 1-4.72-2.122 13.838 13.838 0 0 1-3.773-3.822 11.315 11.315 0 0 1-1.648-6.545 10.866 10.866 0 0 1 2.598-7.443 13.289 13.289 0 0 1 6.744-4.197 28.376 28.376 0 0 1 7.868-1.124 26.753 26.753 0 0 1 9.068 1.25 25.903 25.903 0 0 1 5.945 2.972 1.424 1.424 0 0 1 .4 2.323l-2.049 2.647c-.624.85-1.624.825-2.948 0a20.183 20.183 0 0 0-4.77-2.148 17.91 17.91 0 0 0-5.421-1.024 17.485 17.485 0 0 0-4.996.625 6.844 6.844 0 0 0-3.322 2.123 5.196 5.196 0 0 0-1.274 3.497 7.194 7.194 0 0 0 .5 2.748 5.52 5.52 0 0 0 1.873 2.223 10.516 10.516 0 0 0 3.822 1.648l6.969 1.749a34.97 34.97 0 0 1 5.72 1.923 17.485 17.485 0 0 1 5.12 3.297 9.992 9.992 0 0 1 2.499 3.897 15.137 15.137 0 0 1 .674 4.646 11.565 11.565 0 0 1-2.872 7.969 13.863 13.863 0 0 1-6.445 4.32 29.45 29.45 0 0 1-8.543 1.1 32.173 32.173 0 0 1-11.615-1.873 22.106 22.106 0 0 1-6.22-3.123m38.743 0c-.95-.85-1.124-1.648-.6-2.373l2.048-2.772c.675-.875 1.674-.825 2.973.124a23.106 23.106 0 0 0 5.97 3.173 21.882 21.882 0 0 0 7.494 1.199 15.262 15.262 0 0 0 4.47-.6 7.494 7.494 0 0 0 3.423-2.223 6.145 6.145 0 0 0 1.474-4.346 6.445 6.445 0 0 0-.7-2.998 5.42 5.42 0 0 0-2.173-2.273 16.586 16.586 0 0 0-2.897-1.349 46.46 46.46 0 0 0-4.621-1.398c-1.524-.35-3.523-.925-6.02-1.7a19.134 19.134 0 0 1-4.796-2.197 13.214 13.214 0 0 1-3.897-3.747 11.315 11.315 0 0 1-1.649-6.545 10.741 10.741 0 0 1 2.773-7.443 13.289 13.289 0 0 1 6.744-4.197 28.326 28.326 0 0 1 7.844-1.124 26.827 26.827 0 0 1 9.092 1.25 25.703 25.703 0 0 1 5.92 2.972 1.424 1.424 0 0 1 .425 2.323l-2.049 2.647c-.649.85-1.623.825-2.972 0a19.284 19.284 0 0 0-4.771-2.148 16.711 16.711 0 0 0-10.316-.4 6.72 6.72 0 0 0-3.323 2.124 5.196 5.196 0 0 0-1.274 3.497 7.194 7.194 0 0 0 .5 2.748 5.146 5.146 0 0 0 1.873 2.223 10.516 10.516 0 0 0 3.822 1.648l6.97 1.749a35.67 35.67 0 0 1 5.72 1.923 17.285 17.285 0 0 1 4.995 3.297 10.441 10.441 0 0 1 2.498 3.897 15.137 15.137 0 0 1 .675 4.646 11.59 11.59 0 0 1-2.898 7.969 13.913 13.913 0 0 1-6.42 4.32 29.5 29.5 0 0 1-8.567 1.1 32.473 32.473 0 0 1-11.615-1.873 22.231 22.231 0 0 1-6.245-3.198" fill="#017f98"/></svg>
