<svg viewBox="0 0 600 600" xmlns="http://www.w3.org/2000/svg"><linearGradient id="a" x1="72.687" x2="35.722" y1="72.823" y2="35.859" gradientTransform="translate(1.014 .352) scale(4.9913)" gradientUnits="userSpaceOnUse"><stop stop-color="#3fbda7" offset="0"/><stop stop-color="#077f99" offset=".5"/><stop stop-color="#076b81" offset="1"/></linearGradient><path d="M595.95 7.639v-.01c-2.456-3.699-6.603-5.91-11.041-5.6-75.538 3.953-197.18 48.515-202.31 50.397a12.328 12.328 0 0 0-6.803 6.104l-17.14 34.235-12.633-12.628a12.328 12.328 0 0 0-14.53-2.216c-14.475 7.552-87.582 46.319-103.13 65.186-9.024 10.92-16.027 34.934-20.744 56.097l-8.286-16.481a12.303 12.303 0 0 0-8.704-6.629 12.109 12.109 0 0 0-10.571 2.846c-4.378 3.838-95.643 85.96-76.646 188.33 73.022-104.08 160.78-191.61 304.32-262.09a12.393 12.393 0 0 1 16.62 5.685 12.393 12.393 0 0 1-5.64 16.59l-.044.01a926.46 926.46 0 0 0-24.417 12.519 870.53 870.53 0 0 0-24.043 13.262c-1.927 1.098-3.839 2.176-5.73 3.284a778.53 778.53 0 0 0-43.634 27.397c-1.143.778-2.261 1.577-3.42 2.36a733.14 733.14 0 0 0-17.768 12.554c-1.024.728-2.022 1.477-3.045 2.226-135.46 99.925-207.12 226.54-293.02 378.41a12.438 12.438 0 0 0 4.702 16.915 12.435 12.435 0 0 0 6.114 1.597l.015-.01a12.378 12.378 0 0 0 10.801-6.314c34.2-60.484 66.104-116.85 100.74-169.03 13.706 16.94 33.312 25.83 57.714 25.83 93.891 0 248.95-137.35 264.56-181.56a12.378 12.378 0 0 0-.769-10.002 12.393 12.393 0 0 0-7.916-6.17l-41.383-10.366 90.092-15.014a12.293 12.293 0 0 0 9.054-6.704l99.331-198.65a12.328 12.328 0 0 0-.708-12.353" fill="url(#a)"/></svg>