<svg width="123.41" height="123.41" viewBox="0 0 123.408 123.408" xmlns="http://www.w3.org/2000/svg"><linearGradient id="a" x1="72.687" x2="35.722" y1="72.823" y2="35.859" gradientTransform="translate(1.804 1.67)" gradientUnits="userSpaceOnUse"><stop offset="0" stop-color="#3fbda7"/><stop offset=".5" stop-color="#077f99"/><stop offset="1" stop-color="#076b81"/></linearGradient><path d="M121 3.13v-.002c-.492-.741-1.323-1.184-2.212-1.122-15.134.792-39.506 9.72-40.532 10.097a2.47 2.47 0 0 0-1.363 1.223l-3.434 6.859-2.531-2.53a2.47 2.47 0 0 0-2.911-.444c-2.9 1.513-17.547 9.28-20.663 13.06-1.808 2.188-3.211 6.999-4.156 11.239l-1.66-3.302a2.465 2.465 0 0 0-1.744-1.328 2.426 2.426 0 0 0-2.118.57c-.877.769-19.162 17.222-15.356 37.732 14.63-20.853 32.212-38.39 60.971-52.51a2.483 2.483 0 0 1 3.33 1.139 2.483 2.483 0 0 1-1.13 3.324l-.009.002a185.617 185.617 0 0 0-4.892 2.508 174.41 174.41 0 0 0-4.817 2.657c-.386.22-.769.436-1.148.658a155.978 155.978 0 0 0-8.742 5.489c-.229.156-.453.316-.685.473a146.885 146.885 0 0 0-3.56 2.515c-.205.146-.405.296-.61.446-27.14 20.02-41.497 45.387-58.706 75.815a2.492 2.492 0 0 0 .942 3.389c.388.218.809.32 1.225.32l.003-.002a2.48 2.48 0 0 0 2.164-1.265C13.508 108.022 19.9 96.73 26.84 86.274c2.746 3.394 6.674 5.175 11.563 5.175 18.811 0 49.877-27.518 53.005-36.376a2.48 2.48 0 0 0-.154-2.004 2.483 2.483 0 0 0-1.586-1.236l-8.291-2.077 18.05-3.008a2.463 2.463 0 0 0 1.814-1.343l19.901-39.8A2.47 2.47 0 0 0 121 3.13" fill="url(#a)"/></svg>