<svg viewBox="0 0 600 600" xmlns="http://www.w3.org/2000/svg"><defs><linearGradient id="a" x1="45.37" x2="31.04" y1="45.57" y2="31.24" gradientTransform="translate(2.01 2)" gradientUnits="userSpaceOnUse"><stop stop-color="#3dbca6" offset="0"/><stop stop-color="#017f98" offset=".5"/><stop stop-color="#006b81" offset="1"/></linearGradient></defs><path d="M598.003 299.928A298.001 298.001 0 1 1 300 2a298.001 298.001 0 0 1 298.002 297.928" fill="#fff"/><path d="M65.41 19.91a1 1 0 0 0-.86-.44c-5.86.31-15.31 3.77-15.71 3.91a1 1 0 0 0-.53.48l-1.3 2.66-1-1a1 1 0 0 0-1.13-.18c-1.12.59-6.8 3.6-8 5.07a12.27 12.27 0 0 0-1.61 4.35l-.66-1.26a1 1 0 0 0-1.5-.29c-.34.3-7.43 6.68-6 14.63A59.27 59.27 0 0 1 50.8 27.48a1 1 0 1 1 .85 1.73c-.64.32-1.27.65-1.89 1l-.47.25-1.4.77-.44.26c-1.19.69-2.31 1.4-3.39 2.13l-.27.18c-.47.32-.93.65-1.38 1l-.23.17c-10.54 7.72-16.1 17.55-22.77 29.35a1 1 0 0 0 .36 1.31.94.94 0 0 0 .48.13 1 1 0 0 0 .84-.48c2.65-4.7 5.13-9.08 7.82-13.13a5.52 5.52 0 0 0 4.48 2c7.3 0 19.34-10.66 20.55-14.1a.94.94 0 0 0-.06-.77.92.92 0 0 0-.61-.48l-3.26-.8 7-1.16a1 1 0 0 0 .7-.53l7.72-15.42a1 1 0 0 0-.06-1" fill="url(#a)" transform="translate(-12.64 -12.64) scale(7.3201)"/></svg>