<svg width="50.306" height="50.29" xmlns="http://www.w3.org/2000/svg"><path d="M48.112 2.44a1 1 0 0 0-.86-.44c-5.87.31-15.27 3.77-15.71 3.92a.94.94 0 0 0-.53.47l-1.33 2.66-1-1a1 1 0 0 0-1.13-.17c-1.12.58-6.8 3.59-8 5.06a12.07 12.07 0 0 0-1.57 4.38l-.67-1.32a1 1 0 0 0-.68-.52.93.93 0 0 0-.82.22c-.34.3-7.43 6.68-5.95 14.63A59.31 59.31 0 0 1 33.492 10a1 1 0 0 1 1.29.44 1 1 0 0 1-.44 1.29c-.65.32-1.28.65-1.9 1l-.46.27c-.48.25-.95.51-1.4.78l-.45.25q-1.77 1-3.39 2.13l-.26.18c-.47.32-.93.65-1.38 1l-.24.17c-10.52 7.71-16.09 17.55-22.75 29.34a1 1 0 0 0 .36 1.31.9.9 0 0 0 .47.13h.04a1 1 0 0 0 .84-.49c2.66-4.7 5.14-9.08 7.83-13.13a5.48 5.48 0 0 0 4.48 2c7.29 0 19.33-10.67 20.55-14.11a.94.94 0 0 0-.06-.77 1 1 0 0 0-.62-.48l-3.21-.81 7-1.16a1 1 0 0 0 .7-.52l7.67-15.42a.94.94 0 0 0 0-1" fill="#fff"/></svg>
