<svg width="85.4" height="85.4" xmlns="http://www.w3.org/2000/svg"><defs><linearGradient id="a" x1="69.79" x2="12.23" y1="69.69" y2="12.13" gradientTransform="translate(1.69 1.79)" gradientUnits="userSpaceOnUse"><stop stop-color="#3dbca6" offset="0"/><stop stop-color="#017f98" offset=".5"/><stop stop-color="#006b81" offset="1"/></linearGradient></defs><path d="M83.4 42.7A40.7 40.7 0 1 1 42.69 2a40.7 40.7 0 0 1 40.7 40.7" fill="url(#a)"/><path d="M65.4 19.9a.93.93 0 0 0-.86-.43c-5.85.32-15.31 3.76-15.71 3.91a.94.94 0 0 0-.53.47l-1.33 2.66-1-1a1 1 0 0 0-1.13-.17c-1.12.59-6.8 3.6-8 5.06a12.33 12.33 0 0 0-1.6 4.39l-.64-1.28a.94.94 0 0 0-.68-.51.91.91 0 0 0-.82.22c-.34.29-7.43 6.67-5.95 14.62a59.28 59.28 0 0 1 23.63-20.36 1 1 0 1 1 .91 1.73c-.65.32-1.27.64-1.89 1l-.47.25-1.4.78-.45.26c-1.18.69-2.31 1.4-3.38 2.12l-.27.19c-.47.32-.93.64-1.38 1l-.24.17C31.63 42.69 26.07 52.52 19.4 64.31a1 1 0 0 0 .36 1.32 1 1 0 0 0 .48.12 1 1 0 0 0 .84-.49c2.65-4.7 5.13-9.07 7.82-13.13a5.5 5.5 0 0 0 4.48 2c7.3 0 19.34-10.67 20.55-14.1a1 1 0 0 0-.06-.78 1 1 0 0 0-.61-.48l-3.22-.8 7-1.17a1 1 0 0 0 .7-.52l7.72-15.43a1 1 0 0 0-.06-1" fill="#fff"/></svg>
