<svg viewBox="0 0 600 120" xmlns="http://www.w3.org/2000/svg">
 <g transform="matrix(2.4979 0 0 2.4979 -2.9959 -2.7024)">
  <path d="m240.43 2.44a1 1 0 0 0 -0.85 -0.44c-5.87 0.31-15.32 3.77-15.71 3.92a0.91 0.91 0 0 0 -0.53 0.47l-1.34 2.66-1-1a0.94 0.94 0 0 0 -1.12 -0.17c-1.13 0.58-6.81 3.59-8 5.06a12.07 12.07 0 0 0 -1.61 4.36l-0.64-1.3a1 1 0 0 0 -0.67 -0.52 0.93 0.93 0 0 0 -0.82 0.22c-0.35 0.3-7.43 6.68-6 14.63a59.34 59.34 0 0 1 23.68 -20.33 1 1 0 0 1 1.29 0.44 1 1 0 0 1 -0.44 1.29c-0.65 0.32-1.28 0.65-1.9 1l-0.47 0.25c-0.47 0.25-0.94 0.51-1.4 0.78l-0.44 0.25q-1.77 1-3.39 2.13l-0.27 0.18c-0.47 0.32-0.93 0.65-1.38 1l-0.23 0.17c-10.52 7.76-16.09 17.6-22.76 29.39a1 1 0 0 0 0.37 1.31 0.9 0.9 0 0 0 0.47 0.13 1 1 0 0 0 0.84 -0.49c2.66-4.7 5.13-9.08 7.82-13.13a5.51 5.51 0 0 0 4.49 2c7.29 0 19.33-10.67 20.54-14.11a0.94 0.94 0 0 0 -0.06 -0.77 1 1 0 0 0 -0.61 -0.48l-3.21-0.81 7-1.16a1 1 0 0 0 0.71 -0.52l7.7-15.45a1 1 0 0 0 -0.06 -1m-238.43 21.52q0-6.12 3.16-9.6t9.07-3.47a12.77 12.77 0 0 1 5.77 1.15 6.91 6.91 0 0 1 3.24 3.09c0.34 0.67 0.29 1.14-0.16 1.4l-1.44 0.8q-0.73 0.4-1.29-0.66a6.26 6.26 0 0 0 -2 -2.07 6.74 6.74 0 0 0 -3.91 -1q-4.56 0-6.62 2.72t-2.09 7.64q0 4.91 2.07 7.62t6.62 2.73a6.94 6.94 0 0 0 4.19 -1.16 8 8 0 0 0 2.29 -2.41c0.37-0.68 0.81-0.88 1.31-0.62l1.51 0.83c0.44 0.24 0.47 0.71 0.11 1.4a8.48 8.48 0 0 1 -3.5 3.35 12.49 12.49 0 0 1 -6.1 1.34q-5.91 0-9.07-3.48t-3.16-9.6m24.65 13.08c-0.55 0-0.82-0.26-0.82-0.79v-21.86a1.31 1.31 0 0 1 0.18 -0.66l1.27-2.23c0.23-0.41 0.42-0.61 0.57-0.61h0.64c0.36 0 0.54 0.2 0.54 0.61v24.76c0 0.53-0.27 0.79-0.82 0.79zm9.08-5.08a3 3 0 0 0 0.47 1.75 2.15 2.15 0 0 0 1.31 0.85 8.31 8.31 0 0 0 1.75 0.18 13.41 13.41 0 0 0 2.66 -0.26 6 6 0 0 0 2.58 -1.39v-5.2a37.18 37.18 0 0 0 -5.24 0.64 5.58 5.58 0 0 0 -2.55 1.31 2.84 2.84 0 0 0 -1 2.12m-3.32-0.15a4.82 4.82 0 0 1 3 -4.6c2-1 5-1.54 9-1.71v-1.2a5.25 5.25 0 0 0 -0.77 -2.86c-0.52-0.8-1.54-1.2-3.07-1.2a8.13 8.13 0 0 0 -2.33 0.27 6.77 6.77 0 0 0 -1.59 0.72 6.91 6.91 0 0 0 -1.38 1.15c-0.32 0.36-0.63 0.37-0.92 0.06l-0.95-1.06c-0.27-0.29-0.18-0.65 0.27-1.06a8.31 8.31 0 0 1 1.99 -1.28 11 11 0 0 1 2.26 -0.75 12.82 12.82 0 0 1 2.76 -0.3c2.54 0 4.34 0.63 5.43 1.89a7.72 7.72 0 0 1 1.62 5.16v10.91c0 0.52-0.28 0.79-0.83 0.79h-1.66c-0.48 0-0.72-0.27-0.72-0.79v-0.91a9.33 9.33 0 0 1 -2.81 1.53 10.49 10.49 0 0 1 -3.07 0.43 6.79 6.79 0 0 1 -4.62 -1.35 4.77 4.77 0 0 1 -1.62 -3.84m18.07 3.23c-0.37-0.34-0.45-0.66-0.24-0.95l0.79-1.14c0.26-0.35 0.66-0.33 1.18 0.05a9.25 9.25 0 0 0 2.39 1.27 8.8 8.8 0 0 0 3 0.48 6.11 6.11 0 0 0 1.79 -0.24 3 3 0 0 0 1.37 -0.89 2.46 2.46 0 0 0 0.59 -1.74 2.58 2.58 0 0 0 -0.28 -1.2 2.17 2.17 0 0 0 -0.87 -0.91 6.64 6.64 0 0 0 -1.16 -0.54 16.21 16.21 0 0 0 -1.85 -0.55c-0.61-0.15-1.41-0.38-2.41-0.69a7.3 7.3 0 0 1 -1.89 -0.85 5.41 5.41 0 0 1 -1.56 -1.5 4.53 4.53 0 0 1 -0.61 -2.6 4.35 4.35 0 0 1 1.07 -3 5.4 5.4 0 0 1 2.7 -1.69 12.14 12.14 0 0 1 3.15 -0.44 10.71 10.71 0 0 1 3.63 0.5 10.29 10.29 0 0 1 2.37 1.19c0.39 0.27 0.45 0.58 0.17 0.93l-0.78 1.1c-0.26 0.34-0.65 0.33-1.19 0a7.72 7.72 0 0 0 -1.91 -0.86 6.69 6.69 0 0 0 -4.13 -0.16 2.75 2.75 0 0 0 -1.33 0.84 2.11 2.11 0 0 0 -0.51 1.41 2.92 2.92 0 0 0 0.2 1.1 2.14 2.14 0 0 0 0.75 0.89 4.38 4.38 0 0 0 1.53 0.66l2.79 0.7a13.06 13.06 0 0 1 2.29 0.78 6.78 6.78 0 0 1 2 1.32 4 4 0 0 1 1 1.55 6.06 6.06 0 0 1 0.27 1.86 4.64 4.64 0 0 1 -1.16 3.19 5.68 5.68 0 0 1 -2.6 1.7 12.17 12.17 0 0 1 -3.42 0.43 12.88 12.88 0 0 1 -4.58 -0.75 8.85 8.85 0 0 1 -2.55 -1.25m15.55 0c-0.38-0.34-0.46-0.66-0.24-0.95l0.82-1.11c0.27-0.35 0.66-0.34 1.19 0.05a9.25 9.25 0 0 0 2.39 1.27 8.76 8.76 0 0 0 3 0.48 6.15 6.15 0 0 0 1.79 -0.24 3 3 0 0 0 1.37 -0.89 2.54 2.54 0 0 0 0.59 -1.75 2.64 2.64 0 0 0 -0.28 -1.2 2.21 2.21 0 0 0 -0.87 -0.9 6.64 6.64 0 0 0 -1.16 -0.54 16.92 16.92 0 0 0 -1.85 -0.56c-0.61-0.15-1.41-0.37-2.41-0.68a8 8 0 0 1 -1.89 -0.85 5.32 5.32 0 0 1 -1.56 -1.51 4.53 4.53 0 0 1 -0.69 -2.62 4.3 4.3 0 0 1 1.07 -3 5.37 5.37 0 0 1 2.73 -1.66 11.75 11.75 0 0 1 3.15 -0.45 11 11 0 0 1 3.64 0.5 11.39 11.39 0 0 1 2.37 1.19 0.58 0.58 0 0 1 0.17 0.94l-0.83 1.06c-0.25 0.34-0.64 0.33-1.18 0a7.9 7.9 0 0 0 -1.91 -0.86 7.17 7.17 0 0 0 -2.17 -0.41 6.62 6.62 0 0 0 -2 0.25 2.75 2.75 0 0 0 -1.33 0.84 2.11 2.11 0 0 0 -0.51 1.41 3 3 0 0 0 0.2 1.11 2.12 2.12 0 0 0 0.75 0.89 4.39 4.39 0 0 0 1.53 0.65l2.79 0.7a14.27 14.27 0 0 1 2.33 0.74 6.92 6.92 0 0 1 2 1.32 4 4 0 0 1 1 1.56 6.06 6.06 0 0 1 0.27 1.86 4.64 4.64 0 0 1 -1.16 3.19 5.57 5.57 0 0 1 -2.57 1.73 11.81 11.81 0 0 1 -3.43 0.44 12.91 12.91 0 0 1 -4.65 -0.75 8.74 8.74 0 0 1 -2.46 -1.25m17 2a0.73 0.73 0 0 1 -0.82 -0.82v-17.47a0.73 0.73 0 0 1 0.82 -0.82h1.6a0.73 0.73 0 0 1 0.82 0.82v17.48a0.73 0.73 0 0 1 -0.82 0.82zm0-22.58a0.72 0.72 0 0 1 -0.82 -0.81v-1.56a0.73 0.73 0 0 1 0.82 -0.82h1.6a0.73 0.73 0 0 1 0.82 0.82v1.57a0.72 0.72 0 0 1 -0.82 0.81zm4.87 13.03a10.76 10.76 0 0 1 2.13 -6.84q2.13-2.7 6.49-2.7a8.26 8.26 0 0 1 4.51 1 7.51 7.51 0 0 1 2.24 2.09 0.59 0.59 0 0 1 -0.17 0.93l-1.14 0.72c-0.37 0.25-0.73 0.09-1.1-0.47a4.41 4.41 0 0 0 -1.48 -1.39 5.59 5.59 0 0 0 -2.87 -0.59 4.6 4.6 0 0 0 -3.86 1.8c-0.91 1.19-1.36 3-1.36 5.48s0.45 4.29 1.36 5.48a4.6 4.6 0 0 0 3.86 1.78 5.4 5.4 0 0 0 3.1 -0.75 5.08 5.08 0 0 0 1.56 -1.63q0.48-0.82 1.08-0.48l1.22 0.71c0.36 0.21 0.42 0.53 0.16 1a10.34 10.34 0 0 1 -2.07 2.12q-1.61 1.29-5.05 1.29-4.37 0-6.48-2.71a10.76 10.76 0 0 1 -2.12 -6.84m22.04-3.91h5.08q4 0 5.46-1.14a4.4 4.4 0 0 0 1.54 -3.69 4.37 4.37 0 0 0 -1.51 -3.71q-1.49-1.11-5.49-1.11h-5.11zm-2.59 13.46c-0.61 0-0.91-0.33-0.91-1v-24.1c0-0.66 0.3-1 0.91-1h7.67c4.12 0 6.91 0.7 8.35 2.09a7.54 7.54 0 0 1 2.17 5.72 7.56 7.56 0 0 1 -2.17 5.73c-1.44 1.39-4.23 2.08-8.35 2.08h-5.06v9.48c0 0.67-0.31 1-0.92 1zm21.52 0a0.72 0.72 0 0 1 -0.81 -0.82v-17.47a0.73 0.73 0 0 1 0.82 -0.82h1.53a0.73 0.73 0 0 1 0.82 0.82v2.19a6.94 6.94 0 0 1 2.08 -2.48 5.06 5.06 0 0 1 3 -0.84 4.79 4.79 0 0 1 1.65 0.2c0.28 0.11 0.39 0.29 0.31 0.55l-0.41 1.49a0.36 0.36 0 0 1 -0.48 0.26 5.8 5.8 0 0 0 -1.21 -0.13 4.21 4.21 0 0 0 -3.53 1.92 8.75 8.75 0 0 0 -1.39 5.23v9.09a0.72 0.72 0 0 1 -0.81 0.82zm12.94-10.7h10.28a8.59 8.59 0 0 0 -1.31 -4.47 4.06 4.06 0 0 0 -3.64 -1.92 5.06 5.06 0 0 0 -3.59 1.41c-1 0.94-1.56 2.61-1.74 5m-3.32 1.15a10.21 10.21 0 0 1 2.26 -7 8.12 8.12 0 0 1 6.46 -2.58 7.77 7.77 0 0 1 5.8 2.36q2.3 2.37 2.3 7.57c0 0.53-0.25 0.79-0.75 0.79h-12.75c0.2 2.27 0.84 3.85 1.9 4.74a5.48 5.48 0 0 0 3.61 1.34 6.37 6.37 0 0 0 3.27 -0.69 6.22 6.22 0 0 0 1.66 -1.36c0.39-0.49 0.77-0.58 1.13-0.28l1.08 0.9c0.28 0.23 0.28 0.56 0 1a8.88 8.88 0 0 1 -2 1.63 9.23 9.23 0 0 1 -5.1 1.11c-3 0-5.27-0.87-6.71-2.59a10.54 10.54 0 0 1 -2.16 -7m18.6 7.59c-0.37-0.34-0.45-0.66-0.23-0.95l0.82-1.11c0.26-0.35 0.66-0.33 1.18 0.05a9.42 9.42 0 0 0 2.39 1.27 8.82 8.82 0 0 0 3 0.48 6.08 6.08 0 0 0 1.78 -0.24 3.13 3.13 0 0 0 1.38 -0.89 2.51 2.51 0 0 0 0.59 -1.74 2.59 2.59 0 0 0 -0.29 -1.2 2.12 2.12 0 0 0 -0.87 -0.91 6.32 6.32 0 0 0 -1.16 -0.54 16.05 16.05 0 0 0 -1.84 -0.55c-0.62-0.15-1.42-0.38-2.42-0.69a7.62 7.62 0 0 1 -1.89 -0.85 5.54 5.54 0 0 1 -1.51 -1.53 4.53 4.53 0 0 1 -0.66 -2.62 4.35 4.35 0 0 1 1.04 -2.98 5.4 5.4 0 0 1 2.7 -1.69 12.14 12.14 0 0 1 3.15 -0.44 10.71 10.71 0 0 1 3.63 0.5 10.37 10.37 0 0 1 2.38 1.19 0.57 0.57 0 0 1 0.16 0.93l-0.82 1.06c-0.25 0.34-0.65 0.33-1.18 0a8.08 8.08 0 0 0 -1.91 -0.86 7.17 7.17 0 0 0 -2.17 -0.41 7 7 0 0 0 -2 0.25 2.79 2.79 0 0 0 -1.33 0.84 2.11 2.11 0 0 0 -0.51 1.41 2.92 2.92 0 0 0 0.2 1.1 2.21 2.21 0 0 0 0.75 0.89 4.47 4.47 0 0 0 1.53 0.66l2.8 0.7a13.23 13.23 0 0 1 2.28 0.78 6.66 6.66 0 0 1 2.05 1.32 3.93 3.93 0 0 1 1 1.55 6.06 6.06 0 0 1 0.27 1.86 4.63 4.63 0 0 1 -1.15 3.19 5.65 5.65 0 0 1 -2.58 1.74 12.17 12.17 0 0 1 -3.42 0.43 12.88 12.88 0 0 1 -4.65 -0.75 8.85 8.85 0 0 1 -2.49 -1.25m15.51 0c-0.38-0.34-0.45-0.66-0.24-0.95l0.82-1.11c0.27-0.35 0.67-0.33 1.19 0.05a9.25 9.25 0 0 0 2.39 1.27 8.76 8.76 0 0 0 3 0.48 6.15 6.15 0 0 0 1.79 -0.24 3 3 0 0 0 1.37 -0.89 2.46 2.46 0 0 0 0.59 -1.74 2.58 2.58 0 0 0 -0.28 -1.2 2.17 2.17 0 0 0 -0.87 -0.91 6.64 6.64 0 0 0 -1.16 -0.54 16.21 16.21 0 0 0 -1.85 -0.55c-0.61-0.15-1.41-0.38-2.41-0.69a7.3 7.3 0 0 1 -1.92 -0.88 5.29 5.29 0 0 1 -1.56 -1.5 4.53 4.53 0 0 1 -0.66 -2.62 4.3 4.3 0 0 1 1.11 -2.98 5.4 5.4 0 0 1 2.7 -1.69 12.14 12.14 0 0 1 3.15 -0.44 10.71 10.71 0 0 1 3.63 0.5 10.29 10.29 0 0 1 2.37 1.19 0.57 0.57 0 0 1 0.17 0.93l-0.82 1.06c-0.26 0.34-0.65 0.33-1.19 0a7.72 7.72 0 0 0 -1.91 -0.86 6.69 6.69 0 0 0 -4.13 -0.16 2.75 2.75 0 0 0 -1.33 0.84 2.11 2.11 0 0 0 -0.51 1.41 2.92 2.92 0 0 0 0.2 1.1 2.06 2.06 0 0 0 0.75 0.89 4.38 4.38 0 0 0 1.53 0.66l2.79 0.7a13.35 13.35 0 0 1 2.29 0.78 6.72 6.72 0 0 1 2 1.32 4.07 4.07 0 0 1 1 1.55 6.06 6.06 0 0 1 0.27 1.86 4.64 4.64 0 0 1 -1.16 3.19 5.68 5.68 0 0 1 -2.57 1.74 12.17 12.17 0 0 1 -3.42 0.43 13 13 0 0 1 -4.66 -0.75 8.9 8.9 0 0 1 -2.5 -1.28" style="fill:#fff"/>
 </g>
</svg>
