<svg viewBox="0 0 600 600" xmlns="http://www.w3.org/2000/svg"><defs><linearGradient id="a" x1="69.79" x2="12.23" y1="69.69" y2="12.13" gradientTransform="translate(1.69 1.79)" gradientUnits="userSpaceOnUse"><stop stop-color="#3dbca6" offset="0"/><stop stop-color="#017f98" offset=".5"/><stop stop-color="#006b81" offset="1"/></linearGradient></defs><path d="M83.4 42.7A40.7 40.7 0 1 1 42.69 2a40.7 40.7 0 0 1 40.7 40.7" fill="url(#a)" transform="translate(-12.644 -12.644) scale(7.3219)"/><path d="M466.208 133.062a6.81 6.81 0 0 0-6.297-3.149c-42.833 2.343-112.098 27.53-115.027 28.629a6.883 6.883 0 0 0-3.88 3.441l-9.738 19.477-7.322-7.322a7.322 7.322 0 0 0-8.274-1.245c-8.2 4.32-49.789 26.359-58.575 37.049a90.279 90.279 0 0 0-11.715 32.143l-4.686-9.372a6.883 6.883 0 0 0-4.98-3.734 6.663 6.663 0 0 0-6.003 1.61c-2.49 2.124-54.402 48.838-43.565 107.047a434.042 434.042 0 0 1 173.016-149.074 7.322 7.322 0 1 1 6.663 12.667c-4.76 2.343-9.299 4.686-13.838 7.322l-3.442 1.83-10.25 5.711-3.295 1.904a463.296 463.296 0 0 0-24.748 15.522l-1.977 1.391c-3.441 2.343-6.81 4.686-10.104 7.322l-1.758 1.245c-77.465 56.452-118.175 128.426-167.012 214.751a7.322 7.322 0 0 0 2.636 9.665 7.322 7.322 0 0 0 3.514.879 7.322 7.322 0 0 0 6.15-3.588c19.404-34.413 37.562-66.41 57.258-96.136a40.27 40.27 0 0 0 32.802 14.643c53.45 0 141.606-78.124 150.465-103.238a7.322 7.322 0 0 0-.44-5.711 7.322 7.322 0 0 0-4.466-3.515l-23.576-5.857 51.253-8.567a7.322 7.322 0 0 0 5.126-3.807l56.525-112.977a7.322 7.322 0 0 0-.44-7.322" fill="#fff"/></svg>