<svg viewBox="0 0 600 600" xmlns="http://www.w3.org/2000/svg"><path d="M595.5 7.772a12.871 12.871 0 0 0-11.069-5.663c-75.552 3.99-196.54 48.523-202.2 50.453a12.099 12.099 0 0 0-6.822 6.049l-17.117 34.236-12.87-12.871a12.871 12.871 0 0 0-14.545-2.188c-14.416 7.465-87.52 46.206-102.97 65.126a155.35 155.35 0 0 0-20.206 56.374l-8.623-16.99a12.871 12.871 0 0 0-8.752-6.692 11.97 11.97 0 0 0-10.554 2.832c-4.377 3.86-95.63 85.977-76.581 188.3a763.37 763.37 0 0 1 304.14-261.66 12.871 12.871 0 0 1 16.604 5.663 12.871 12.871 0 0 1-5.664 16.603c-8.366 4.118-16.475 8.366-24.455 12.87l-5.92 3.476c-6.178 3.218-12.228 6.564-18.02 10.039l-5.79 3.218q-22.782 12.87-43.633 27.415l-3.346 2.316c-6.05 4.119-11.97 8.366-17.762 12.871l-3.09 2.188c-135.4 99.234-207.09 225.88-292.81 377.63a12.871 12.871 0 0 0 4.634 16.861 11.584 11.584 0 0 0 6.05 1.673h.514a12.871 12.871 0 0 0 10.812-6.306c34.236-60.493 66.156-116.87 100.78-168.99a70.532 70.532 0 0 0 57.661 25.74c93.828 0 248.79-137.33 264.5-181.61a12.099 12.099 0 0 0-.772-9.91 12.871 12.871 0 0 0-7.98-6.178l-41.316-10.425 90.096-14.93a12.871 12.871 0 0 0 9.01-6.693l98.719-198.47a12.099 12.099 0 0 0 0-12.87" fill="#fff"/></svg>